<mxfile host="app.diagrams.net" modified="2023-04-28T09:04:39.846Z" agent="Mozilla/5.0 (Windows NT 10.0; Win64; x64) AppleWebKit/537.36 (KHTML, like Gecko) Chrome/109.0.0.0 Safari/537.36" etag="taop9XZrpmh66fCPn7qL" version="21.2.3" type="github">
  <diagram name="第 1 页" id="KSjp4WGugERjeT88tiEb">
    <mxGraphModel dx="1434" dy="708" grid="1" gridSize="10" guides="1" tooltips="1" connect="1" arrows="1" fold="1" page="1" pageScale="1" pageWidth="827" pageHeight="1169" math="0" shadow="0">
      <root>
        <mxCell id="0" />
        <mxCell id="1" parent="0" />
        <mxCell id="F0XA6iagCGVVG4y_Ab69-1" value="" style="whiteSpace=wrap;html=1;aspect=fixed;fontStyle=0;fontSize=14;" vertex="1" parent="1">
          <mxGeometry x="120" y="140" width="220" height="220" as="geometry" />
        </mxCell>
        <mxCell id="F0XA6iagCGVVG4y_Ab69-2" value="View" style="rounded=0;whiteSpace=wrap;html=1;direction=south;fontStyle=0;fontSize=14;" vertex="1" parent="1">
          <mxGeometry x="150" y="190" width="60" height="120" as="geometry" />
        </mxCell>
        <mxCell id="F0XA6iagCGVVG4y_Ab69-3" value="App&lt;br style=&quot;font-size: 14px;&quot;&gt;Service" style="rounded=0;whiteSpace=wrap;html=1;direction=south;fontStyle=0;fontSize=14;" vertex="1" parent="1">
          <mxGeometry x="260" y="190" width="60" height="120" as="geometry" />
        </mxCell>
        <mxCell id="F0XA6iagCGVVG4y_Ab69-5" value="" style="endArrow=classic;html=1;rounded=0;exitX=0.25;exitY=0;exitDx=0;exitDy=0;entryX=0.25;entryY=1;entryDx=0;entryDy=0;fontStyle=0;fontSize=14;" edge="1" parent="1" source="F0XA6iagCGVVG4y_Ab69-2" target="F0XA6iagCGVVG4y_Ab69-3">
          <mxGeometry width="50" height="50" relative="1" as="geometry">
            <mxPoint x="390" y="380" as="sourcePoint" />
            <mxPoint x="440" y="330" as="targetPoint" />
          </mxGeometry>
        </mxCell>
        <mxCell id="F0XA6iagCGVVG4y_Ab69-6" value="" style="endArrow=classic;html=1;rounded=0;exitX=0.692;exitY=1;exitDx=0;exitDy=0;entryX=0.692;entryY=-0.033;entryDx=0;entryDy=0;exitPerimeter=0;entryPerimeter=0;fontStyle=0;fontSize=14;" edge="1" parent="1" source="F0XA6iagCGVVG4y_Ab69-3" target="F0XA6iagCGVVG4y_Ab69-2">
          <mxGeometry width="50" height="50" relative="1" as="geometry">
            <mxPoint x="220" y="230" as="sourcePoint" />
            <mxPoint x="270" y="230" as="targetPoint" />
          </mxGeometry>
        </mxCell>
        <mxCell id="F0XA6iagCGVVG4y_Ab69-7" value="Event" style="text;html=1;strokeColor=none;fillColor=none;align=center;verticalAlign=middle;whiteSpace=wrap;rounded=0;fontStyle=0;fontSize=14;" vertex="1" parent="1">
          <mxGeometry x="203" y="197" width="60" height="30" as="geometry" />
        </mxCell>
        <mxCell id="F0XA6iagCGVVG4y_Ab69-8" value="Data" style="text;html=1;strokeColor=none;fillColor=none;align=center;verticalAlign=middle;whiteSpace=wrap;rounded=0;fontStyle=0;fontSize=14;" vertex="1" parent="1">
          <mxGeometry x="210" y="250" width="60" height="30" as="geometry" />
        </mxCell>
        <mxCell id="F0XA6iagCGVVG4y_Ab69-9" value="" style="rounded=0;whiteSpace=wrap;html=1;direction=south;fontStyle=0;fontSize=14;" vertex="1" parent="1">
          <mxGeometry x="430" y="140" width="170" height="315" as="geometry" />
        </mxCell>
        <mxCell id="F0XA6iagCGVVG4y_Ab69-10" value="Model" style="rounded=0;whiteSpace=wrap;html=1;fontStyle=0;fontSize=14;" vertex="1" parent="1">
          <mxGeometry x="455" y="360" width="120" height="60" as="geometry" />
        </mxCell>
        <mxCell id="F0XA6iagCGVVG4y_Ab69-11" value="Service" style="rounded=0;whiteSpace=wrap;html=1;fontStyle=0;fontSize=14;" vertex="1" parent="1">
          <mxGeometry x="455" y="260" width="120" height="60" as="geometry" />
        </mxCell>
        <mxCell id="F0XA6iagCGVVG4y_Ab69-12" value="Controller" style="rounded=0;whiteSpace=wrap;html=1;fontStyle=0;fontSize=14;" vertex="1" parent="1">
          <mxGeometry x="455" y="160" width="120" height="60" as="geometry" />
        </mxCell>
        <mxCell id="F0XA6iagCGVVG4y_Ab69-13" value="Nosql" style="rounded=0;whiteSpace=wrap;html=1;fontStyle=0;fontSize=14;" vertex="1" parent="1">
          <mxGeometry x="455" y="480" width="120" height="60" as="geometry" />
        </mxCell>
        <mxCell id="F0XA6iagCGVVG4y_Ab69-14" value="" style="endArrow=classic;startArrow=classic;html=1;rounded=0;exitX=0.5;exitY=0;exitDx=0;exitDy=0;fontStyle=0;fontSize=14;" edge="1" parent="1" source="F0XA6iagCGVVG4y_Ab69-13" target="F0XA6iagCGVVG4y_Ab69-10">
          <mxGeometry width="50" height="50" relative="1" as="geometry">
            <mxPoint x="390" y="380" as="sourcePoint" />
            <mxPoint x="440" y="330" as="targetPoint" />
          </mxGeometry>
        </mxCell>
        <mxCell id="F0XA6iagCGVVG4y_Ab69-15" value="" style="endArrow=classic;html=1;rounded=0;exitX=0.5;exitY=1;exitDx=0;exitDy=0;entryX=0.5;entryY=0;entryDx=0;entryDy=0;fontStyle=0;fontSize=14;" edge="1" parent="1" source="F0XA6iagCGVVG4y_Ab69-12" target="F0XA6iagCGVVG4y_Ab69-11">
          <mxGeometry width="50" height="50" relative="1" as="geometry">
            <mxPoint x="390" y="380" as="sourcePoint" />
            <mxPoint x="440" y="330" as="targetPoint" />
          </mxGeometry>
        </mxCell>
        <mxCell id="F0XA6iagCGVVG4y_Ab69-16" value="" style="endArrow=classic;html=1;rounded=0;exitX=0.5;exitY=1;exitDx=0;exitDy=0;entryX=0.5;entryY=0;entryDx=0;entryDy=0;fontStyle=0;fontSize=14;" edge="1" parent="1" source="F0XA6iagCGVVG4y_Ab69-11" target="F0XA6iagCGVVG4y_Ab69-10">
          <mxGeometry width="50" height="50" relative="1" as="geometry">
            <mxPoint x="525" y="230" as="sourcePoint" />
            <mxPoint x="525" y="270" as="targetPoint" />
          </mxGeometry>
        </mxCell>
        <mxCell id="F0XA6iagCGVVG4y_Ab69-18" value="" style="endArrow=classic;html=1;rounded=0;exitX=1.005;exitY=0.314;exitDx=0;exitDy=0;exitPerimeter=0;fontStyle=0;fontSize=14;" edge="1" parent="1" source="F0XA6iagCGVVG4y_Ab69-1">
          <mxGeometry width="50" height="50" relative="1" as="geometry">
            <mxPoint x="390" y="380" as="sourcePoint" />
            <mxPoint x="430" y="210" as="targetPoint" />
          </mxGeometry>
        </mxCell>
        <mxCell id="F0XA6iagCGVVG4y_Ab69-19" value="" style="endArrow=classic;html=1;rounded=0;entryX=1.014;entryY=0.618;entryDx=0;entryDy=0;entryPerimeter=0;exitX=0.432;exitY=1.012;exitDx=0;exitDy=0;exitPerimeter=0;fontStyle=0;fontSize=14;" edge="1" parent="1" source="F0XA6iagCGVVG4y_Ab69-9" target="F0XA6iagCGVVG4y_Ab69-1">
          <mxGeometry width="50" height="50" relative="1" as="geometry">
            <mxPoint x="420" y="270" as="sourcePoint" />
            <mxPoint x="440" y="220" as="targetPoint" />
          </mxGeometry>
        </mxCell>
        <mxCell id="F0XA6iagCGVVG4y_Ab69-20" value="Ajax request" style="text;html=1;strokeColor=none;fillColor=none;align=center;verticalAlign=middle;whiteSpace=wrap;rounded=0;fontStyle=0;fontSize=14;" vertex="1" parent="1">
          <mxGeometry x="335" y="175" width="100" height="30" as="geometry" />
        </mxCell>
        <mxCell id="F0XA6iagCGVVG4y_Ab69-21" value="Json&amp;nbsp; data" style="text;html=1;align=center;verticalAlign=middle;resizable=0;points=[];autosize=1;strokeColor=none;fillColor=none;fontStyle=0;fontSize=14;" vertex="1" parent="1">
          <mxGeometry x="345" y="236" width="90" height="30" as="geometry" />
        </mxCell>
        <mxCell id="F0XA6iagCGVVG4y_Ab69-22" value="&lt;font style=&quot;font-size: 14px;&quot;&gt;&lt;span&gt;微信小程序&lt;/span&gt;&lt;/font&gt;" style="text;html=1;align=center;verticalAlign=middle;resizable=0;points=[];autosize=1;strokeColor=none;fillColor=none;fontStyle=0" vertex="1" parent="1">
          <mxGeometry x="165" y="105" width="90" height="30" as="geometry" />
        </mxCell>
        <mxCell id="F0XA6iagCGVVG4y_Ab69-23" value="&lt;span&gt;&lt;font style=&quot;font-size: 14px;&quot;&gt;云函数&lt;/font&gt;&lt;/span&gt;" style="text;html=1;align=center;verticalAlign=middle;resizable=0;points=[];autosize=1;strokeColor=none;fillColor=none;fontStyle=0" vertex="1" parent="1">
          <mxGeometry x="480" y="105" width="70" height="30" as="geometry" />
        </mxCell>
      </root>
    </mxGraphModel>
  </diagram>
</mxfile>
